<svg width="24" height="24" viewBox="0 0 24 24" fill="none" xmlns="http://www.w3.org/2000/svg">
<g id="bookmark (2) 1">
<path id="Vector" d="M16 2H8.00001C7.20436 2 6.4413 2.31607 5.87869 2.87868C5.31608 3.44129 5.00001 4.20435 5.00001 5V21C4.99931 21.1762 5.04518 21.3495 5.13299 21.5023C5.22079 21.655 5.3474 21.7819 5.50001 21.87C5.65203 21.9578 5.82447 22.004 6.00001 22.004C6.17554 22.004 6.34799 21.9578 6.50001 21.87L12 18.69L17.5 21.87C17.6524 21.9564 17.8248 22.0012 18 22C18.1752 22.0012 18.3476 21.9564 18.5 21.87C18.6526 21.7819 18.7792 21.655 18.867 21.5023C18.9548 21.3495 19.0007 21.1762 19 21V5C19 4.20435 18.6839 3.44129 18.1213 2.87868C17.5587 2.31607 16.7957 2 16 2ZM17 19.27L12.5 16.67C12.348 16.5822 12.1755 16.536 12 16.536C11.8245 16.536 11.652 16.5822 11.5 16.67L7.00001 19.27V5C7.00001 4.73478 7.10536 4.48043 7.2929 4.29289C7.48044 4.10536 7.73479 4 8.00001 4H16C16.2652 4 16.5196 4.10536 16.7071 4.29289C16.8947 4.48043 17 4.73478 17 5V19.27Z" fill="#ACAFC3"/>
<path id="Vector_2" d="M15.4286 3H8.57143C7.88945 3 7.2354 3.27092 6.75316 3.75315C6.27092 4.23539 6.00001 4.88944 6.00001 5.57143V19.2857C5.99941 19.4367 6.03873 19.5852 6.11399 19.7162C6.18925 19.8472 6.29777 19.9559 6.42858 20.0314C6.55888 20.1066 6.70669 20.1462 6.85715 20.1462C7.00761 20.1462 7.15542 20.1066 7.28572 20.0314L12 17.3057L16.7143 20.0314C16.8449 20.1054 16.9927 20.1439 17.1429 20.1428C17.293 20.1439 17.4408 20.1054 17.5714 20.0314C17.7022 19.9559 17.8108 19.8472 17.886 19.7162C17.9613 19.5852 18.0006 19.4367 18 19.2857V5.57143C18 4.88944 17.7291 4.23539 17.2468 3.75315C16.7646 3.27092 16.1106 3 15.4286 3ZM16.2857 17.8028L12.4286 15.5743C12.2983 15.499 12.1505 15.4594 12 15.4594C11.8495 15.4594 11.7017 15.499 11.5714 15.5743L7.71429 17.8028V5.57143C7.71429 5.3441 7.8046 5.12608 7.96534 4.96533C8.12609 4.80459 8.3441 4.71428 8.57143 4.71428H15.4286C15.6559 4.71428 15.8739 4.80459 16.0347 4.96533C16.1954 5.12608 16.2857 5.3441 16.2857 5.57143V17.8028Z" fill="#ACAFC3"/>
<rect id="Rectangle 22" x="7" y="4" width="10" height="14" fill="#ACAFC3"/>
</g>
</svg>
